<svg width="320" height="136" viewBox="0 0 320 136" fill="none" xmlns="http://www.w3.org/2000/svg">
<g filter="url(#filter0_i_94_692)">
<path fill-rule="evenodd" clip-rule="evenodd" d="M296 102.413C354.223 101.939 342.76 147.48 389.835 130.919C441.242 112.833 404.418 54.4455 401.623 23.7498C398.924 -5.9039 361.875 -32.364 313.258 -50.509C270.133 -66.6041 213.452 -70.5077 159.566 -66.5912C113.235 -63.2239 78.1452 -47.5889 46.0665 -31.0896C15.3657 -15.299 -6.89308 2.54414 -16.0792 23.7498C-28.4033 52.199 -58.5433 110.331 -16.0793 130.919C26.3867 151.508 235.849 102.903 296 102.413Z" fill="url(#paint0_linear_94_692)"/>
</g>
<defs>
<filter id="filter0_i_94_692" x="-38" y="-69" width="455" height="205" filterUnits="userSpaceOnUse" color-interpolation-filters="sRGB">
<feFlood flood-opacity="0" result="BackgroundImageFix"/>
<feBlend mode="normal" in="SourceGraphic" in2="BackgroundImageFix" result="shape"/>
<feColorMatrix in="SourceAlpha" type="matrix" values="0 0 0 0 0 0 0 0 0 0 0 0 0 0 0 0 0 0 127 0" result="hardAlpha"/>
<feOffset dy="-1"/>
<feGaussianBlur stdDeviation="2"/>
<feComposite in2="hardAlpha" operator="arithmetic" k2="-1" k3="1"/>
<feColorMatrix type="matrix" values="0 0 0 0 0 0 0 0 0 0 0 0 0 0 0 0 0 0 0.08 0"/>
<feBlend mode="normal" in2="shape" result="effect1_innerShadow_94_692"/>
</filter>
<linearGradient id="paint0_linear_94_692" x1="189.5" y1="136" x2="189.5" y2="-68" gradientUnits="userSpaceOnUse">
<stop stop-color="#E9E1EF"/>
<stop offset="1" stop-color="#F0FCFF"/>
</linearGradient>
</defs>
</svg>
